<mxfile host="app.diagrams.net" modified="2023-10-30T13:10:32.508Z" agent="Mozilla/5.0 (Windows NT 10.0; Win64; x64) AppleWebKit/537.36 (KHTML, like Gecko) Chrome/118.0.0.0 Safari/537.36" version="22.0.0" etag="iOOW2l6mi0kslvNG3Iyi" type="github">
  <diagram name="Page-1" id="YitOyBYGWd7Bgvr9wrsP">
    <mxGraphModel>
      <root>
        <mxCell id="0" />
        <mxCell id="1" parent="0" />
      </root>
    </mxGraphModel>
  </diagram>
</mxfile>
